<svg xmlns="http://www.w3.org/2000/svg" version="1.1" width="111px" height="121px" style="shape-rendering:geometricPrecision; text-rendering:geometricPrecision; image-rendering:optimizeQuality; fill-rule:evenodd; clip-rule:evenodd" xmlns:xlink="http://www.w3.org/1999/xlink">
  <g><path style="opacity:1" fill="#0c0c0c" d="M 52.5,11.5 C 68.8077,11.8039 77.8077,20.1372 79.5,36.5C 77.7685,40.6206 76.6018,44.9539 76,49.5C 74.5787,52.0094 72.9121,54.3428 71,56.5C 70.3333,58.1667 70.3333,59.8333 71,61.5C 79.7351,64.5332 87.7351,68.8665 95,74.5C 95.6667,75.8333 96.3333,77.1667 97,78.5C 98.5289,86.7849 99.1956,95.1183 99,103.5C 96.5445,107.983 92.7111,110.316 87.5,110.5C 87.3824,106.518 89.3824,104.185 93.5,103.5C 94.331,95.1271 93.831,86.7937 92,78.5C 86.6425,73.7368 80.4759,70.4035 73.5,68.5C 62.645,72.4776 51.8116,72.4776 41,68.5C 33.964,70.0169 27.964,73.3502 23,78.5C 21.4514,86.8362 20.9514,95.1695 21.5,103.5C 23.2895,104.877 25.2895,105.877 27.5,106.5C 28.4287,107.689 28.762,109.022 28.5,110.5C 23.3081,110.486 19.1415,108.486 16,104.5C 15.7328,94.7083 16.7328,85.0416 19,75.5C 20.8333,73.6667 22.6667,71.8333 24.5,70C 30.8333,67.1667 37.1667,64.3333 43.5,61.5C 44.6309,59.9255 44.7975,58.2588 44,56.5C 40.6144,53.1905 38.4477,49.1905 37.5,44.5C 36.2322,45.4279 34.8989,45.5946 33.5,45C 34.4601,43.5806 35.2935,42.0806 36,40.5C 35.3504,27.1127 40.8504,17.446 52.5,11.5 Z"/></g>
  <g><path style="opacity:1" fill="#f7f7f7" d="M 67.5,28.5 C 69.7525,28.9156 71.2525,30.249 72,32.5C 73.9978,40.7741 72.1645,47.9407 66.5,54C 56.2035,58.9004 48.3702,56.4004 43,46.5C 42.2195,45.0563 42.3861,43.723 43.5,42.5C 52.8125,39.852 60.8125,35.1853 67.5,28.5 Z"/></g>
  <g><path style="opacity:1" fill="#efefef" d="M 49.5,60.5 C 54.8195,61.7752 60.1529,61.7752 65.5,60.5C 65.2965,62.3904 65.9632,63.8904 67.5,65C 60.7465,66.9274 54.0798,66.9274 47.5,65C 49.0368,63.8904 49.7035,62.3904 49.5,60.5 Z"/></g>
  <g><path style="opacity:1" fill="#040404" d="M 31.5,79.5 C 48.8365,79.3334 66.1699,79.5001 83.5,80C 84.4874,91.0854 84.8207,102.252 84.5,113.5C 87.5,113.5 90.5,113.5 93.5,113.5C 93.5,114.833 93.5,116.167 93.5,117.5C 69.831,117.667 46.1643,117.5 22.5,117C 21.6634,115.989 21.33,114.822 21.5,113.5C 24.5,113.5 27.5,113.5 30.5,113.5C 30.1894,102.086 30.5227,90.7524 31.5,79.5 Z"/></g>
  <g><path style="opacity:1" fill="#d6d6d6" d="M 48.5,90.5 C 49.4972,90.4701 50.1639,90.9701 50.5,92C 49.3746,93.9626 48.0413,95.796 46.5,97.5C 47.4803,98.9814 48.647,100.315 50,101.5C 50.7494,102.635 50.5827,103.635 49.5,104.5C 46.8333,102.5 44.5,100.167 42.5,97.5C 44.5227,95.1472 46.5227,92.8138 48.5,90.5 Z"/></g>
  <g><path style="opacity:1" fill="#e5e5e5" d="M 58.5,90.5 C 59.675,90.281 60.675,90.6143 61.5,91.5C 59.8312,96.1711 57.6645,100.504 55,104.5C 54.5,104.333 54,104.167 53.5,104C 55.6639,99.674 57.3305,95.174 58.5,90.5 Z"/></g>
  <g><path style="opacity:1" fill="#e0e0e0" d="M 65.5,90.5 C 68.1456,92.4789 70.4789,94.8122 72.5,97.5C 70.517,99.9837 68.3504,102.317 66,104.5C 65.3076,103.975 64.8076,103.308 64.5,102.5C 65.8333,100.833 67.1667,99.1667 68.5,97.5C 67.1667,95.8333 65.8333,94.1667 64.5,92.5C 64.8627,91.8165 65.1961,91.1499 65.5,90.5 Z"/></g>
</svg>


